<?xml version="1.0" encoding="utf-8"?>
<!-- Generator: Adobe Illustrator 18.0.0, SVG Export Plug-In . SVG Version: 6.00 Build 0)  -->
<!DOCTYPE svg PUBLIC "-//W3C//DTD SVG 1.1//EN" "http://www.w3.org/Graphics/SVG/1.1/DTD/svg11.dtd">
<svg version="1.1" xmlns="http://www.w3.org/2000/svg" xmlns:xlink="http://www.w3.org/1999/xlink" x="0px" y="0px"
	 viewBox="0 0 60 60" enable-background="new 0 0 60 60" xml:space="preserve">
<g id="locked">
	<g>
		<defs>
			<path id="SVGID_1_" d="M-97.5-637.2c-0.9-8.2-7.8-14.6-16.2-14.6c-8.1,0-14.8,5.9-16,13.6c-0.7-0.1-1.4-0.2-2.2-0.2
				c-7.9,0-14.4,6.4-14.4,14.4c0,7.9,6.4,14.4,14.4,14.4h28.7c7.9,0,14.4-6.4,14.4-14.4C-88.8-629.9-92.4-635-97.5-637.2z"/>
		</defs>
		<clipPath id="SVGID_2_">
			<use xlink:href="#SVGID_1_"  overflow="visible"/>
		</clipPath>
		<g clip-path="url(#SVGID_2_)">
			<defs>
				<rect id="SVGID_3_" x="-901" y="-1397.6" width="2919.2" height="1735.3"/>
			</defs>
			<clipPath id="SVGID_4_">
				<use xlink:href="#SVGID_3_"  overflow="visible"/>
			</clipPath>
		</g>
		
			<use xlink:href="#SVGID_1_"  overflow="visible" fill-rule="evenodd" clip-rule="evenodd" fill="none" stroke="#5AAAFA" stroke-width="1.3" stroke-linecap="round" stroke-miterlimit="10"/>
	</g>
	<g>
		<defs>
			<path id="SVGID_5_" d="M-588.7-642.9c-1,0-1.9-0.8-1.9-1.8c0-1,0.8-1.8,1.9-1.8c1,0,1.9,0.8,1.9,1.8
				C-586.8-643.7-587.6-642.9-588.7-642.9z M-581.3-645.6c-0.5-3.5-3.6-6.3-7.4-6.3c-3.8,0-6.9,2.7-7.4,6.3h-7.5v1.8h7.5
				c0.5,3.5,3.6,6.3,7.4,6.3c3.8,0,6.9-2.7,7.4-6.3h33.6v-1.8H-581.3z"/>
		</defs>
		<clipPath id="SVGID_6_">
			<use xlink:href="#SVGID_5_"  overflow="visible"/>
		</clipPath>
		<g clip-path="url(#SVGID_6_)">
			<defs>
				<rect id="SVGID_7_" x="-1411.8" y="-1177.3" width="3101.8" height="1843.8"/>
			</defs>
			<clipPath id="SVGID_8_">
				<use xlink:href="#SVGID_7_"  overflow="visible"/>
			</clipPath>
		</g>
	</g>
	<g>
		<defs>
			<path id="SVGID_9_" d="M-562.5-628.6c-1,0-1.9-0.8-1.9-1.8s0.8-1.8,1.9-1.8c1,0,1.9,0.8,1.9,1.8S-561.5-628.6-562.5-628.6z
				 M-562.5-637.6c-3.8,0-6.9,2.7-7.4,6.3h-33.6v1.8h33.6c0.5,3.5,3.6,6.3,7.4,6.3s6.9-2.7,7.4-6.3h7.5v-1.8h-7.5
				C-555.6-634.8-558.7-637.6-562.5-637.6z"/>
		</defs>
		<clipPath id="SVGID_10_">
			<use xlink:href="#SVGID_9_"  overflow="visible"/>
		</clipPath>
		<g clip-path="url(#SVGID_10_)">
			<defs>
				<rect id="SVGID_11_" x="-1411.8" y="-1177.3" width="3101.8" height="1843.8"/>
			</defs>
			<clipPath id="SVGID_12_">
				<use xlink:href="#SVGID_11_"  overflow="visible"/>
			</clipPath>
		</g>
	</g>
	<g>
		<defs>
			<path id="SVGID_13_" d="M-588.7-614.3c-1,0-1.9-0.8-1.9-1.8s0.8-1.8,1.9-1.8c1,0,1.9,0.8,1.9,1.8S-587.6-614.3-588.7-614.3z
				 M-588.7-623.3c-3.8,0-6.9,2.7-7.4,6.3h-7.5v1.8h7.5c0.5,3.5,3.6,6.3,7.4,6.3c3.8,0,6.9-2.7,7.4-6.3h33.6v-1.8h-33.6
				C-581.7-620.5-584.9-623.3-588.7-623.3z"/>
		</defs>
		<clipPath id="SVGID_14_">
			<use xlink:href="#SVGID_13_"  overflow="visible"/>
		</clipPath>
		<g clip-path="url(#SVGID_14_)">
			<defs>
				<rect id="SVGID_15_" x="-1411.8" y="-1177.3" width="3101.8" height="1843.8"/>
			</defs>
			<clipPath id="SVGID_16_">
				<use xlink:href="#SVGID_15_"  overflow="visible"/>
			</clipPath>
		</g>
	</g>
	<g>
		<defs>
			<path id="SVGID_17_" d="M-417.8-645.9c1.4,0,2.6,1.2,2.6,2.6s-1.2,2.6-2.6,2.6c-1.4,0-2.6-1.2-2.6-2.6S-419.2-645.9-417.8-645.9z
				 M-451.6-635.5h40v12.2h-40V-635.5z M-451.6-621.6h40v12.2h-40V-621.6z M-453.4-607.7h43.4v-43.4h-43.4V-607.7z"/>
		</defs>
		<clipPath id="SVGID_18_">
			<use xlink:href="#SVGID_17_"  overflow="visible"/>
		</clipPath>
		<g clip-path="url(#SVGID_18_)">
			<defs>
				<rect id="SVGID_19_" x="-1710" y="-1083.9" width="2582.2" height="1535"/>
			</defs>
			<clipPath id="SVGID_20_">
				<use xlink:href="#SVGID_19_"  overflow="visible"/>
			</clipPath>
		</g>
	</g>
	<g>
		
			<circle fill="none" stroke="#5AAAFA" stroke-width="1.2" stroke-linecap="round" stroke-miterlimit="10" cx="30.3" cy="36.8" r="21.5"/>
		<path fill="none" stroke="#5AAAFA" stroke-width="1.2" stroke-linecap="round" stroke-miterlimit="10" d="M49.5,26.9
			c0.4,7.7-2.6,15.5-9,20.8c-7.3,6.2-17.2,7.4-25.5,4.1"/>
		<path fill="none" stroke="#5AAAFA" stroke-width="1.2" stroke-linecap="round" stroke-miterlimit="10" d="M8.8,37.3
			c6.3-4.1,14.6-6.5,23.8-6.5c7,0,13.6,1.5,19.1,4"/>
		<path fill="none" stroke="#5AAAFA" stroke-width="1.2" stroke-linecap="round" stroke-miterlimit="10" d="M19.9,46.7
			c-6.7-6.9-9.3-15.9-6.9-22.8"/>
		
			<circle fill="none" stroke="#5AAAFA" stroke-width="1.2" stroke-linecap="round" stroke-miterlimit="10" cx="21.8" cy="25.4" r="2.4"/>
		<path fill="none" stroke="#5AAAFA" stroke-width="1.2" stroke-linecap="round" stroke-miterlimit="10" d="M24,24.6
			c5.3-5.4,14.8-5.6,23.4-0.9"/>
		
			<circle fill="none" stroke="#5AAAFA" stroke-width="1.2" stroke-linecap="round" stroke-miterlimit="10" cx="34.3" cy="41.9" r="3.5"/>
		
			<circle fill="none" stroke="#5AAAFA" stroke-width="1.2" stroke-linecap="round" stroke-miterlimit="10" cx="38.8" cy="25.2" r="2"/>
		
			<circle fill="none" stroke="#5AAAFA" stroke-width="1.2" stroke-linecap="round" stroke-miterlimit="10" cx="21.8" cy="48.5" r="2.2"/>
		
			<line fill="none" stroke="#5AAAFA" stroke-width="1.2" stroke-linecap="round" stroke-miterlimit="10" x1="29.6" y1="0.7" x2="29.6" y2="10.1"/>
		
			<line fill="none" stroke="#5AAAFA" stroke-width="1.2" stroke-linecap="round" stroke-miterlimit="10" x1="15.8" y1="3.9" x2="20.2" y2="12.3"/>
		
			<line fill="none" stroke="#5AAAFA" stroke-width="1.2" stroke-linecap="round" stroke-miterlimit="10" x1="39.8" y1="12.3" x2="44.2" y2="3.9"/>
		
			<line fill="none" stroke="#5AAAFA" stroke-width="1.2" stroke-linecap="round" stroke-miterlimit="10" x1="48.7" y1="18.9" x2="55.8" y2="12.7"/>
		
			<line fill="none" stroke="#5AAAFA" stroke-width="1.2" stroke-linecap="round" stroke-miterlimit="10" x1="4.2" y1="12.7" x2="11.3" y2="18.9"/>
		<path fill="none" stroke="#5AAAFA" stroke-width="1.2" stroke-linecap="round" stroke-miterlimit="10" d="M22.5,46.3
			c0.2-6.2,2.3-13.5,6.3-20.5c2.1-3.7,4.5-7,7-9.8"/>
		<path fill="none" stroke="#5AAAFA" stroke-width="1.2" stroke-linecap="round" stroke-miterlimit="10" d="M30.8,42.3
			C22.6,43,15,42.1,9,39.9"/>
		<path fill="none" stroke="#5AAAFA" stroke-width="1.2" stroke-linecap="round" stroke-miterlimit="10" d="M33.1,45.2
			c-0.3,0.5-0.6,1.1-0.9,1.6c-2.3,4.1-5,7.6-7.8,10.6"/>
		<path fill="none" stroke="#5AAAFA" stroke-width="1.2" stroke-linecap="round" stroke-miterlimit="10" d="M38.5,27.2
			c-0.2,3.6-1.1,7.5-2.5,11.6"/>
		<path fill="none" stroke="#5AAAFA" stroke-width="1.2" stroke-linecap="round" stroke-miterlimit="10" d="M36.7,16.2
			c1,2,1.6,4.3,1.7,7"/>
		<path fill="none" stroke="#5AAAFA" stroke-width="1.2" stroke-linecap="round" stroke-miterlimit="10" d="M40.1,26.7
			c7.2,6.8,10.1,16.1,7.4,22.9"/>
		<path fill="none" stroke="#5AAAFA" stroke-width="1.2" stroke-linecap="round" stroke-miterlimit="10" d="M18.4,18.8
			c5.7-0.9,12.5,0.9,18.5,5.2"/>
	</g>
</g>
<g id="Layer_1">
</g>
</svg>
